<?xml version="1.0" encoding="UTF-8" standalone="no"?>
<!DOCTYPE svg PUBLIC "-//W3C//DTD SVG 1.1//EN"
 "http://www.w3.org/Graphics/SVG/1.1/DTD/svg11.dtd">
<!-- Generated by graphviz version 2.40.1 (20161225.0304)
 -->
<!-- Title: ergw_aaa_session Pages: 1 -->
<svg width="1476pt" height="404pt"
 viewBox="0.00 0.00 1476.19 404.00" xmlns="http://www.w3.org/2000/svg" xmlns:xlink="http://www.w3.org/1999/xlink">
<g id="graph0" class="graph" transform="scale(1 1) rotate(0) translate(4 400)">
<title>ergw_aaa_session</title>
<polygon fill="#ffffff" stroke="transparent" points="-4,4 -4,-400 1472.1857,-400 1472.1857,4 -4,4"/>
<!-- diameter_3gpp_base -->
<g id="node1" class="node">
<title>diameter_3gpp_base</title>
<ellipse fill="#ffff00" stroke="#000000" cx="252.4937" cy="-234" rx="83.6854" ry="18"/>
<text text-anchor="middle" x="252.4937" y="-230.3" font-family="Times,serif" font-size="14.00" fill="#000000">diameter_3gpp_base</text>
</g>
<!-- diameter_3gpp_ts29_061_sgi -->
<g id="node2" class="node">
<title>diameter_3gpp_ts29_061_sgi</title>
<ellipse fill="#f0e68c" stroke="#000000" cx="276.4937" cy="-18" rx="115.0796" ry="18"/>
<text text-anchor="middle" x="276.4937" y="-14.3" font-family="Times,serif" font-size="14.00" fill="#000000">diameter_3gpp_ts29_061_sgi</text>
</g>
<!-- diameter_3gpp_ts29_212 -->
<g id="node3" class="node">
<title>diameter_3gpp_ts29_212</title>
<ellipse fill="#f5f5dc" stroke="#000000" cx="455.4937" cy="-234" rx="100.9827" ry="18"/>
<text text-anchor="middle" x="455.4937" y="-230.3" font-family="Times,serif" font-size="14.00" fill="#000000">diameter_3gpp_ts29_212</text>
</g>
<!-- diameter_3gpp_ts32_299 -->
<g id="node4" class="node">
<title>diameter_3gpp_ts32_299</title>
<ellipse fill="#7fffd4" stroke="#000000" cx="927.4937" cy="-18" rx="100.9827" ry="18"/>
<text text-anchor="middle" x="927.4937" y="-14.3" font-family="Times,serif" font-size="14.00" fill="#000000">diameter_3gpp_ts32_299</text>
</g>
<!-- diameter_3gpp_ts32_299_rf -->
<g id="node5" class="node">
<title>diameter_3gpp_ts32_299_rf</title>
<ellipse fill="#7fffd4" stroke="#000000" cx="520.4937" cy="-18" rx="110.4804" ry="18"/>
<text text-anchor="middle" x="520.4937" y="-14.3" font-family="Times,serif" font-size="14.00" fill="#000000">diameter_3gpp_ts32_299_rf</text>
</g>
<!-- diameter_3gpp_ts32_299_ro -->
<g id="node6" class="node">
<title>diameter_3gpp_ts32_299_ro</title>
<ellipse fill="#7fffd4" stroke="#000000" cx="1158.4937" cy="-18" rx="112.3801" ry="18"/>
<text text-anchor="middle" x="1158.4937" y="-14.3" font-family="Times,serif" font-size="14.00" fill="#000000">diameter_3gpp_ts32_299_ro</text>
</g>
<!-- ergw_aaa_config -->
<g id="node7" class="node">
<title>ergw_aaa_config</title>
<ellipse fill="#ff6347" stroke="#000000" cx="71.4937" cy="-18" rx="71.4873" ry="18"/>
<text text-anchor="middle" x="71.4937" y="-14.3" font-family="Times,serif" font-size="14.00" fill="#000000">ergw_aaa_config</text>
</g>
<!-- ergw_aaa_diameter -->
<g id="node8" class="node">
<title>ergw_aaa_diameter</title>
<ellipse fill="#ffe4b5" stroke="#000000" cx="728.4937" cy="-18" rx="79.8859" ry="18"/>
<text text-anchor="middle" x="728.4937" y="-14.3" font-family="Times,serif" font-size="14.00" fill="#000000">ergw_aaa_diameter</text>
</g>
<!-- ergw_aaa_diameter_srv -->
<g id="node9" class="node">
<title>ergw_aaa_diameter_srv</title>
<ellipse fill="#9acd32" stroke="#000000" cx="669.4937" cy="-234" rx="94.7833" ry="18"/>
<text text-anchor="middle" x="669.4937" y="-230.3" font-family="Times,serif" font-size="14.00" fill="#000000">ergw_aaa_diameter_srv</text>
</g>
<!-- ergw_aaa_session -->
<g id="node15" class="node">
<title>ergw_aaa_session</title>
<ellipse fill="#ffe4b5" stroke="#000000" cx="565.4937" cy="-162" rx="74.187" ry="18"/>
<text text-anchor="middle" x="565.4937" y="-158.3" font-family="Times,serif" font-size="14.00" fill="#000000">ergw_aaa_session</text>
</g>
<!-- ergw_aaa_diameter_srv&#45;&gt;ergw_aaa_session -->
<g id="edge1" class="edge">
<title>ergw_aaa_diameter_srv&#45;&gt;ergw_aaa_session</title>
<path fill="none" stroke="#000000" d="M644.3182,-216.5708C630.5489,-207.0383 613.3242,-195.1134 598.4913,-184.8445"/>
<polygon fill="#000000" stroke="#000000" points="600.2926,-181.8347 590.0784,-179.0202 596.3081,-187.5901 600.2926,-181.8347"/>
</g>
<!-- ergw_aaa_gx -->
<g id="node10" class="node">
<title>ergw_aaa_gx</title>
<ellipse fill="#ff6347" stroke="#000000" cx="353.4937" cy="-306" rx="57.6901" ry="18"/>
<text text-anchor="middle" x="353.4937" y="-302.3" font-family="Times,serif" font-size="14.00" fill="#000000">ergw_aaa_gx</text>
</g>
<!-- ergw_aaa_gx&#45;&gt;diameter_3gpp_base -->
<g id="edge2" class="edge">
<title>ergw_aaa_gx&#45;&gt;diameter_3gpp_base</title>
<path fill="none" stroke="#000000" d="M330.3222,-289.4817C316.9826,-279.9723 300.0025,-267.8677 285.3086,-257.3928"/>
<polygon fill="#000000" stroke="#000000" points="287.1406,-254.4005 276.9661,-251.4457 283.0772,-260.1005 287.1406,-254.4005"/>
</g>
<!-- ergw_aaa_gx&#45;&gt;diameter_3gpp_ts29_212 -->
<g id="edge3" class="edge">
<title>ergw_aaa_gx&#45;&gt;diameter_3gpp_ts29_212</title>
<path fill="none" stroke="#000000" d="M376.8945,-289.4817C390.2678,-280.0417 407.2643,-268.0442 422.0285,-257.6225"/>
<polygon fill="#000000" stroke="#000000" points="424.2679,-260.3259 430.4192,-251.6996 420.2311,-254.6071 424.2679,-260.3259"/>
</g>
<!-- ergw_aaa_gx&#45;&gt;ergw_aaa_config -->
<g id="edge4" class="edge">
<title>ergw_aaa_gx&#45;&gt;ergw_aaa_config</title>
<path fill="none" stroke="#000000" d="M301.3186,-297.9376C247.7938,-288.719 169.2377,-272.2537 146.4937,-252 86.0917,-198.2119 74.0203,-95.7529 71.8222,-46.2132"/>
<polygon fill="#000000" stroke="#000000" points="75.3197,-46.0786 71.4826,-36.2031 68.3237,-46.316 75.3197,-46.0786"/>
</g>
<!-- ergw_aaa_gx&#45;&gt;ergw_aaa_diameter -->
<g id="edge5" class="edge">
<title>ergw_aaa_gx&#45;&gt;ergw_aaa_diameter</title>
<path fill="none" stroke="#000000" d="M410.4774,-302.7951C519.7071,-296.0673 749.883,-278.8407 773.4937,-252 826.3324,-191.9328 800.7277,-147.2217 773.4937,-72 769.7158,-61.5653 762.9436,-51.7299 755.7811,-43.3848"/>
<polygon fill="#000000" stroke="#000000" points="758.2213,-40.8675 748.8794,-35.8696 753.0655,-45.6023 758.2213,-40.8675"/>
</g>
<!-- ergw_aaa_gx&#45;&gt;ergw_aaa_diameter_srv -->
<g id="edge6" class="edge">
<title>ergw_aaa_gx&#45;&gt;ergw_aaa_diameter_srv</title>
<path fill="none" stroke="#000000" d="M400.4608,-295.2986C452.9026,-283.3499 538.3428,-263.8825 598.8523,-250.0955"/>
<polygon fill="#000000" stroke="#000000" points="599.7437,-253.4822 608.7162,-247.848 598.1885,-246.6571 599.7437,-253.4822"/>
</g>
<!-- ergw_aaa_gx&#45;&gt;ergw_aaa_session -->
<g id="edge7" class="edge">
<title>ergw_aaa_gx&#45;&gt;ergw_aaa_session</title>
<path fill="none" stroke="#000000" d="M298.2276,-300.6484C223.7746,-291.0751 105.7895,-267.0437 150.4937,-216 171.8105,-191.6602 368.0372,-174.6345 482.9237,-166.8258"/>
<polygon fill="#000000" stroke="#000000" points="483.3531,-170.3049 493.0966,-166.144 482.8849,-163.3206 483.3531,-170.3049"/>
</g>
<!-- ergw_aaa_session_reg -->
<g id="node16" class="node">
<title>ergw_aaa_session_reg</title>
<ellipse fill="#ff6347" stroke="#000000" cx="1378.4937" cy="-18" rx="89.8845" ry="18"/>
<text text-anchor="middle" x="1378.4937" y="-14.3" font-family="Times,serif" font-size="14.00" fill="#000000">ergw_aaa_session_reg</text>
</g>
<!-- ergw_aaa_gx&#45;&gt;ergw_aaa_session_reg -->
<g id="edge8" class="edge">
<title>ergw_aaa_gx&#45;&gt;ergw_aaa_session_reg</title>
<path fill="none" stroke="#000000" d="M411.0607,-303.8672C496.9007,-299.6077 662.9784,-287.1901 799.4937,-252 1008.5873,-198.101 1242.7759,-86.4403 1336.4621,-39.5131"/>
<polygon fill="#000000" stroke="#000000" points="1338.2495,-42.532 1345.6108,-34.9122 1335.1044,-36.2783 1338.2495,-42.532"/>
</g>
<!-- ergw_aaa_nasreq -->
<g id="node11" class="node">
<title>ergw_aaa_nasreq</title>
<ellipse fill="#fff0f5" stroke="#000000" cx="565.4937" cy="-90" rx="71.4873" ry="18"/>
<text text-anchor="middle" x="565.4937" y="-86.3" font-family="Times,serif" font-size="14.00" fill="#000000">ergw_aaa_nasreq</text>
</g>
<!-- ergw_aaa_nasreq&#45;&gt;diameter_3gpp_ts29_061_sgi -->
<g id="edge9" class="edge">
<title>ergw_aaa_nasreq&#45;&gt;diameter_3gpp_ts29_061_sgi</title>
<path fill="none" stroke="#000000" d="M514.4915,-77.2936C468.1368,-65.745 399.2858,-48.5918 347.547,-35.7019"/>
<polygon fill="#000000" stroke="#000000" points="348.3168,-32.2867 337.7672,-33.2654 346.6245,-39.0791 348.3168,-32.2867"/>
</g>
<!-- ergw_aaa_nasreq&#45;&gt;ergw_aaa_config -->
<g id="edge10" class="edge">
<title>ergw_aaa_nasreq&#45;&gt;ergw_aaa_config</title>
<path fill="none" stroke="#000000" d="M513.3717,-77.5273C503.8026,-75.4914 493.8748,-73.5461 484.4937,-72 338.0487,-47.8646 298.9386,-60.1354 152.4937,-36 146.3373,-34.9854 139.9455,-33.7988 133.5741,-32.5276"/>
<polygon fill="#000000" stroke="#000000" points="134.1166,-29.0659 123.6156,-30.4727 132.702,-35.9214 134.1166,-29.0659"/>
</g>
<!-- ergw_aaa_nasreq&#45;&gt;ergw_aaa_diameter -->
<g id="edge11" class="edge">
<title>ergw_aaa_nasreq&#45;&gt;ergw_aaa_diameter</title>
<path fill="none" stroke="#000000" d="M601.2647,-74.1993C625.219,-63.6183 656.9657,-49.5951 682.7541,-38.204"/>
<polygon fill="#000000" stroke="#000000" points="684.2269,-41.3797 691.9601,-34.1375 681.3985,-34.9766 684.2269,-41.3797"/>
</g>
<!-- ergw_aaa_nasreq&#45;&gt;ergw_aaa_diameter_srv -->
<g id="edge12" class="edge">
<title>ergw_aaa_nasreq&#45;&gt;ergw_aaa_diameter_srv</title>
<path fill="none" stroke="#000000" d="M601.693,-105.6793C618.3015,-114.6214 636.846,-127.3919 648.4937,-144 661.1827,-162.093 666.2966,-186.7694 668.3135,-205.7077"/>
<polygon fill="#000000" stroke="#000000" points="664.8388,-206.1575 669.1605,-215.8308 671.8144,-205.5737 664.8388,-206.1575"/>
</g>
<!-- ergw_aaa_nasreq&#45;&gt;ergw_aaa_session -->
<g id="edge13" class="edge">
<title>ergw_aaa_nasreq&#45;&gt;ergw_aaa_session</title>
<path fill="none" stroke="#000000" d="M571.4697,-108.4133C572.2008,-116.0593 572.4139,-125.1084 572.1091,-133.5726"/>
<polygon fill="#000000" stroke="#000000" points="568.5984,-133.6264 571.446,-143.8314 575.5839,-134.078 568.5984,-133.6264"/>
</g>
<!-- ergw_aaa_radius -->
<g id="node12" class="node">
<title>ergw_aaa_radius</title>
<ellipse fill="#fff0f5" stroke="#000000" cx="169.4937" cy="-90" rx="70.3881" ry="18"/>
<text text-anchor="middle" x="169.4937" y="-86.3" font-family="Times,serif" font-size="14.00" fill="#000000">ergw_aaa_radius</text>
</g>
<!-- ergw_aaa_radius&#45;&gt;ergw_aaa_config -->
<g id="edge14" class="edge">
<title>ergw_aaa_radius&#45;&gt;ergw_aaa_config</title>
<path fill="none" stroke="#000000" d="M146.269,-72.937C133.4258,-63.5012 117.2799,-51.6389 103.2812,-41.3541"/>
<polygon fill="#000000" stroke="#000000" points="105.0223,-38.2902 94.8912,-35.19 100.8778,-43.9314 105.0223,-38.2902"/>
</g>
<!-- ergw_aaa_radius&#45;&gt;ergw_aaa_session -->
<g id="edge15" class="edge">
<title>ergw_aaa_radius&#45;&gt;ergw_aaa_session</title>
<path fill="none" stroke="#000000" d="M226.5789,-100.7038C238.4985,-103.189 250.9261,-105.7605 262.4937,-108 342.5024,-123.4899 434.4743,-139.1483 495.9756,-149.5857"/>
<polygon fill="#000000" stroke="#000000" points="495.5117,-153.0569 505.9564,-151.2793 496.6829,-146.1555 495.5117,-153.0569"/>
</g>
<!-- ergw_aaa_rf -->
<g id="node13" class="node">
<title>ergw_aaa_rf</title>
<ellipse fill="#fff0f5" stroke="#000000" cx="709.4937" cy="-90" rx="54.6905" ry="18"/>
<text text-anchor="middle" x="709.4937" y="-86.3" font-family="Times,serif" font-size="14.00" fill="#000000">ergw_aaa_rf</text>
</g>
<!-- ergw_aaa_rf&#45;&gt;diameter_3gpp_ts32_299 -->
<g id="edge16" class="edge">
<title>ergw_aaa_rf&#45;&gt;diameter_3gpp_ts32_299</title>
<path fill="none" stroke="#000000" d="M748.2165,-77.2108C781.9418,-66.0722 831.3147,-49.7655 869.7123,-37.0837"/>
<polygon fill="#000000" stroke="#000000" points="870.8239,-40.4026 879.2218,-33.943 868.6286,-33.7558 870.8239,-40.4026"/>
</g>
<!-- ergw_aaa_rf&#45;&gt;diameter_3gpp_ts32_299_rf -->
<g id="edge17" class="edge">
<title>ergw_aaa_rf&#45;&gt;diameter_3gpp_ts32_299_rf</title>
<path fill="none" stroke="#000000" d="M673.4993,-76.2879C645.2543,-65.5279 605.5131,-50.3884 573.612,-38.2355"/>
<polygon fill="#000000" stroke="#000000" points="574.5756,-34.8573 563.9847,-34.568 572.0836,-41.3988 574.5756,-34.8573"/>
</g>
<!-- ergw_aaa_rf&#45;&gt;ergw_aaa_config -->
<g id="edge18" class="edge">
<title>ergw_aaa_rf&#45;&gt;ergw_aaa_config</title>
<path fill="none" stroke="#000000" d="M669.8355,-77.5107C661.8431,-75.373 653.4519,-73.395 645.4937,-72 429.0987,-34.0674 369.8578,-67.914 152.4937,-36 146.1334,-35.0662 139.5292,-33.9109 132.9595,-32.6399"/>
<polygon fill="#000000" stroke="#000000" points="133.1997,-29.1176 122.7039,-30.5624 131.8099,-35.9782 133.1997,-29.1176"/>
</g>
<!-- ergw_aaa_rf&#45;&gt;ergw_aaa_diameter -->
<g id="edge19" class="edge">
<title>ergw_aaa_rf&#45;&gt;ergw_aaa_diameter</title>
<path fill="none" stroke="#000000" d="M714.2882,-71.8314C716.3425,-64.0463 718.7897,-54.7729 721.0692,-46.1347"/>
<polygon fill="#000000" stroke="#000000" points="724.4671,-46.9753 723.6346,-36.4133 717.6988,-45.1892 724.4671,-46.9753"/>
</g>
<!-- ergw_aaa_rf&#45;&gt;ergw_aaa_diameter_srv -->
<g id="edge20" class="edge">
<title>ergw_aaa_rf&#45;&gt;ergw_aaa_diameter_srv</title>
<path fill="none" stroke="#000000" d="M704.4688,-108.0896C697.638,-132.6805 685.3534,-176.905 677.3123,-205.8531"/>
<polygon fill="#000000" stroke="#000000" points="673.8639,-205.1903 674.5597,-215.7623 680.6085,-207.0639 673.8639,-205.1903"/>
</g>
<!-- ergw_aaa_rf&#45;&gt;ergw_aaa_session -->
<g id="edge21" class="edge">
<title>ergw_aaa_rf&#45;&gt;ergw_aaa_session</title>
<path fill="none" stroke="#000000" d="M683.5155,-105.8411C663.4816,-116.4774 635.4182,-130.5783 611.6344,-141.9894"/>
<polygon fill="#000000" stroke="#000000" points="609.9425,-138.9184 602.4179,-146.3771 612.9514,-145.2387 609.9425,-138.9184"/>
</g>
<!-- ergw_aaa_ro -->
<g id="node14" class="node">
<title>ergw_aaa_ro</title>
<ellipse fill="#fff0f5" stroke="#000000" cx="876.4937" cy="-90" rx="55.7903" ry="18"/>
<text text-anchor="middle" x="876.4937" y="-86.3" font-family="Times,serif" font-size="14.00" fill="#000000">ergw_aaa_ro</text>
</g>
<!-- ergw_aaa_ro&#45;&gt;diameter_3gpp_ts32_299 -->
<g id="edge22" class="edge">
<title>ergw_aaa_ro&#45;&gt;diameter_3gpp_ts32_299</title>
<path fill="none" stroke="#000000" d="M889.1004,-72.2022C895.0625,-63.7851 902.3007,-53.5665 908.8783,-44.2805"/>
<polygon fill="#000000" stroke="#000000" points="911.7536,-46.2765 914.6777,-36.0931 906.0414,-42.2303 911.7536,-46.2765"/>
</g>
<!-- ergw_aaa_ro&#45;&gt;diameter_3gpp_ts32_299_ro -->
<g id="edge23" class="edge">
<title>ergw_aaa_ro&#45;&gt;diameter_3gpp_ts32_299_ro</title>
<path fill="none" stroke="#000000" d="M920.1784,-78.7504C928.8946,-76.5105 937.9842,-74.1778 946.4937,-72 993.8426,-59.882 1047.1573,-46.3021 1088.4762,-35.792"/>
<polygon fill="#000000" stroke="#000000" points="1089.3444,-39.1827 1098.1731,-33.3258 1087.6189,-32.3987 1089.3444,-39.1827"/>
</g>
<!-- ergw_aaa_ro&#45;&gt;ergw_aaa_config -->
<g id="edge24" class="edge">
<title>ergw_aaa_ro&#45;&gt;ergw_aaa_config</title>
<path fill="none" stroke="#000000" d="M828.97,-80.5175C811.5802,-77.3595 791.7061,-74.1122 773.4937,-72 498.8709,-40.1509 426.3178,-74.1097 152.4937,-36 146.1266,-35.1139 139.5179,-33.9897 132.9455,-32.7374"/>
<polygon fill="#000000" stroke="#000000" points="133.1801,-29.2148 122.6871,-30.6799 131.8035,-36.0782 133.1801,-29.2148"/>
</g>
<!-- ergw_aaa_ro&#45;&gt;ergw_aaa_diameter -->
<g id="edge25" class="edge">
<title>ergw_aaa_ro&#45;&gt;ergw_aaa_diameter</title>
<path fill="none" stroke="#000000" d="M845.468,-74.9064C823.992,-64.4587 795.126,-50.4157 771.443,-38.8943"/>
<polygon fill="#000000" stroke="#000000" points="772.8387,-35.6811 762.3152,-34.4537 769.7764,-41.9758 772.8387,-35.6811"/>
</g>
<!-- ergw_aaa_ro&#45;&gt;ergw_aaa_diameter_srv -->
<g id="edge26" class="edge">
<title>ergw_aaa_ro&#45;&gt;ergw_aaa_diameter_srv</title>
<path fill="none" stroke="#000000" d="M852.715,-106.5417C815.8131,-132.2126 744.6475,-181.7191 702.6964,-210.9024"/>
<polygon fill="#000000" stroke="#000000" points="700.673,-208.0464 694.4627,-216.6302 704.6705,-213.7927 700.673,-208.0464"/>
</g>
<!-- ergw_aaa_ro&#45;&gt;ergw_aaa_session -->
<g id="edge27" class="edge">
<title>ergw_aaa_ro&#45;&gt;ergw_aaa_session</title>
<path fill="none" stroke="#000000" d="M832.589,-101.3399C780.1571,-113.9619 692.1363,-134.3705 631.5133,-147.9835"/>
<polygon fill="#000000" stroke="#000000" points="630.6477,-144.5906 621.6543,-150.1913 632.1774,-151.4214 630.6477,-144.5906"/>
</g>
<!-- ergw_aaa_ro&#45;&gt;ergw_aaa_session_reg -->
<g id="edge28" class="edge">
<title>ergw_aaa_ro&#45;&gt;ergw_aaa_session_reg</title>
<path fill="none" stroke="#000000" d="M918.8475,-78.066C927.9164,-75.8043 937.481,-73.6371 946.4937,-72 1092.9592,-45.3947 1132.1672,-57.3285 1279.4937,-36 1287.3602,-34.8612 1295.5577,-33.5585 1303.7202,-32.1863"/>
<polygon fill="#000000" stroke="#000000" points="1304.371,-35.6259 1313.6346,-30.4843 1303.1865,-28.7268 1304.371,-35.6259"/>
</g>
<!-- ergw_aaa_session&#45;&gt;ergw_aaa_config -->
<g id="edge29" class="edge">
<title>ergw_aaa_session&#45;&gt;ergw_aaa_config</title>
<path fill="none" stroke="#000000" d="M499.7938,-153.6113C429.4129,-143.8677 322.9136,-126.7197 286.4937,-108 265.8024,-97.3648 268.5987,-83.7056 248.4937,-72 228.5312,-60.3774 175.1476,-44.7737 132.1877,-33.3286"/>
<polygon fill="#000000" stroke="#000000" points="132.9213,-29.9024 122.3591,-30.7336 131.1343,-36.6705 132.9213,-29.9024"/>
</g>
<!-- ergw_aaa_session&#45;&gt;ergw_aaa_gx -->
<g id="edge32" class="edge">
<title>ergw_aaa_session&#45;&gt;ergw_aaa_gx</title>
<path fill="none" stroke="#ff7f50" stroke-width="2" d="M493.9956,-166.8589C385.4837,-174.6825 189.7804,-191.6945 168.4937,-216 127.8668,-262.3882 221.606,-286.4668 290.011,-297.6587"/>
<polygon fill="#ff7f50" stroke="#ff7f50" stroke-width="2" points="299.9007,-299.2175 289.3219,-302.1055 294.8838,-298.9329 289.9448,-298.1543 290.0226,-297.6604 290.1005,-297.1665 295.0395,-297.9451 290.7233,-293.2153 299.9007,-299.2175 299.9007,-299.2175"/>
</g>
<!-- ergw_aaa_session&#45;&gt;ergw_aaa_nasreq -->
<g id="edge33" class="edge">
<title>ergw_aaa_session&#45;&gt;ergw_aaa_nasreq</title>
<path fill="none" stroke="#ff7f50" stroke-width="2" d="M559.5413,-143.8314C558.7908,-136.131 558.5699,-126.9743 558.8786,-118.4166"/>
<polygon fill="#ff7f50" stroke="#ff7f50" stroke-width="2" points="559.5176,-108.4133 563.3708,-118.6799 559.6978,-113.435 559.379,-118.4248 558.88,-118.3929 558.381,-118.361 558.6998,-113.3712 554.3891,-118.106 559.5176,-108.4133 559.5176,-108.4133"/>
</g>
<!-- ergw_aaa_session&#45;&gt;ergw_aaa_radius -->
<g id="edge34" class="edge">
<title>ergw_aaa_session&#45;&gt;ergw_aaa_radius</title>
<path fill="none" stroke="#ff7f50" stroke-width="2" d="M501.5279,-152.7764C436.47,-142.5309 333.1391,-125.1619 244.4937,-108 239.4969,-107.0326 234.3397,-106.0033 229.1749,-104.9457"/>
<polygon fill="#ff7f50" stroke="#ff7f50" stroke-width="2" points="219.2735,-102.886 229.9805,-100.5171 224.2706,-103.4149 229.1658,-104.4332 229.0639,-104.9227 228.9621,-105.4123 224.0669,-104.3939 228.1474,-109.3284 219.2735,-102.886 219.2735,-102.886"/>
</g>
<!-- ergw_aaa_session&#45;&gt;ergw_aaa_rf -->
<g id="edge35" class="edge">
<title>ergw_aaa_session&#45;&gt;ergw_aaa_rf</title>
<path fill="none" stroke="#ff7f50" stroke-width="2" d="M593.4348,-145.1192C614.1972,-134.1478 642.759,-119.8388 666.4052,-108.5497"/>
<polygon fill="#ff7f50" stroke="#ff7f50" stroke-width="2" points="675.5323,-104.2286 668.4197,-112.5749 671.2271,-106.8201 666.708,-108.9596 666.494,-108.5077 666.2801,-108.0558 670.7992,-105.9162 664.5684,-104.4405 675.5323,-104.2286 675.5323,-104.2286"/>
</g>
<!-- ergw_aaa_session&#45;&gt;ergw_aaa_ro -->
<g id="edge36" class="edge">
<title>ergw_aaa_session&#45;&gt;ergw_aaa_ro</title>
<path fill="none" stroke="#ff7f50" stroke-width="2" d="M616.8221,-148.8778C672.588,-135.5238 761.2995,-114.9985 819.2689,-102.0464"/>
<polygon fill="#ff7f50" stroke="#ff7f50" stroke-width="2" points="829.3643,-99.7985 820.5814,-106.3644 824.5925,-101.3733 819.712,-102.4601 819.6033,-101.972 819.4947,-101.484 824.3751,-100.3972 818.6253,-97.5796 829.3643,-99.7985 829.3643,-99.7985"/>
</g>
<!-- ergw_aaa_session&#45;&gt;ergw_aaa_session_reg -->
<g id="edge30" class="edge">
<title>ergw_aaa_session&#45;&gt;ergw_aaa_session_reg</title>
<path fill="none" stroke="#000000" d="M636.38,-156.4746C729.7559,-148.4024 888.3491,-131.7222 941.4937,-108 964.2537,-97.8406 961.6271,-81.9175 984.4937,-72 1105.6711,-19.4438 1148.9058,-55.8224 1279.4937,-36 1287.2051,-34.8295 1295.238,-33.5197 1303.2458,-32.1549"/>
<polygon fill="#000000" stroke="#000000" points="1304.0944,-35.56 1313.3494,-30.403 1302.8984,-28.663 1304.0944,-35.56"/>
</g>
<!-- ergw_aaa_session_seq -->
<g id="node17" class="node">
<title>ergw_aaa_session_seq</title>
<ellipse fill="#ff6347" stroke="#000000" cx="385.4937" cy="-90" rx="90.1842" ry="18"/>
<text text-anchor="middle" x="385.4937" y="-86.3" font-family="Times,serif" font-size="14.00" fill="#000000">ergw_aaa_session_seq</text>
</g>
<!-- ergw_aaa_session&#45;&gt;ergw_aaa_session_seq -->
<g id="edge31" class="edge">
<title>ergw_aaa_session&#45;&gt;ergw_aaa_session_seq</title>
<path fill="none" stroke="#000000" d="M526.8791,-146.5542C500.1501,-135.8626 464.3274,-121.5335 435.429,-109.9741"/>
<polygon fill="#000000" stroke="#000000" points="436.5019,-106.6337 425.9172,-106.1694 433.9021,-113.1331 436.5019,-106.6337"/>
</g>
<!-- ergw_aaa_static -->
<g id="node18" class="node">
<title>ergw_aaa_static</title>
<ellipse fill="#ff6347" stroke="#000000" cx="353.4937" cy="-378" rx="67.6881" ry="18"/>
<text text-anchor="middle" x="353.4937" y="-374.3" font-family="Times,serif" font-size="14.00" fill="#000000">ergw_aaa_static</text>
</g>
<!-- ergw_aaa_static&#45;&gt;ergw_aaa_config -->
<g id="edge37" class="edge">
<title>ergw_aaa_static&#45;&gt;ergw_aaa_config</title>
<path fill="none" stroke="#000000" d="M299.2079,-367.1004C202.0511,-346.024 8.4937,-296.2266 8.4937,-234 8.4937,-234 8.4937,-234 8.4937,-162 8.4937,-117.9247 33.5727,-72.1433 52.0842,-44.3541"/>
<polygon fill="#000000" stroke="#000000" points="55.0522,-46.2148 57.8236,-35.9888 49.2801,-42.2546 55.0522,-46.2148"/>
</g>
<!-- ergw_aaa_static&#45;&gt;ergw_aaa_gx -->
<g id="edge38" class="edge">
<title>ergw_aaa_static&#45;&gt;ergw_aaa_gx</title>
<path fill="none" stroke="#000000" d="M353.4937,-359.8314C353.4937,-352.131 353.4937,-342.9743 353.4937,-334.4166"/>
<polygon fill="#000000" stroke="#000000" points="356.9938,-334.4132 353.4937,-324.4133 349.9938,-334.4133 356.9938,-334.4132"/>
</g>
<!-- ergw_aaa_static&#45;&gt;ergw_aaa_rf -->
<g id="edge39" class="edge">
<title>ergw_aaa_static&#45;&gt;ergw_aaa_rf</title>
<path fill="none" stroke="#000000" d="M412.5806,-369.0368C517.6603,-351.7583 730.0959,-310.3279 773.4937,-252 805.2457,-209.3243 763.1488,-148.8119 733.6961,-115.1217"/>
<polygon fill="#000000" stroke="#000000" points="736.188,-112.6583 726.9009,-107.5592 730.9812,-117.3369 736.188,-112.6583"/>
</g>
<!-- ergw_aaa_static&#45;&gt;ergw_aaa_ro -->
<g id="edge40" class="edge">
<title>ergw_aaa_static&#45;&gt;ergw_aaa_ro</title>
<path fill="none" stroke="#000000" d="M416.3837,-371.1966C499.2719,-361.659 640.2224,-343.3052 688.4937,-324 741.0321,-302.9883 756.1149,-294.4807 793.4937,-252 829.3441,-211.2563 854.4468,-152.2737 867.0882,-117.8585"/>
<polygon fill="#000000" stroke="#000000" points="870.537,-118.6086 870.6095,-108.014 863.946,-116.251 870.537,-118.6086"/>
</g>
<!-- ergw_aaa_static&#45;&gt;ergw_aaa_session -->
<g id="edge41" class="edge">
<title>ergw_aaa_static&#45;&gt;ergw_aaa_session</title>
<path fill="none" stroke="#000000" d="M308.5002,-364.4323C231.7418,-339.1128 89.085,-281.2822 146.4937,-216 168.3266,-191.1727 367.2614,-174.5303 482.9914,-166.8594"/>
<polygon fill="#000000" stroke="#000000" points="483.4852,-170.3347 493.2354,-166.1894 483.0283,-163.3496 483.4852,-170.3347"/>
</g>
</g>
</svg>
