<?xml version="1.0" encoding="UTF-8" standalone="no"?>
<!DOCTYPE svg PUBLIC "-//W3C//DTD SVG 1.1//EN"
 "http://www.w3.org/Graphics/SVG/1.1/DTD/svg11.dtd">
<!-- Generated by graphviz version 2.40.1 (20161225.0304)
 -->
<!-- Title: ergw_aaa_flow_syntax Pages: 1 -->
<svg width="794pt" height="260pt"
 viewBox="0.00 0.00 793.58 260.00" xmlns="http://www.w3.org/2000/svg" xmlns:xlink="http://www.w3.org/1999/xlink">
<g id="graph0" class="graph" transform="scale(1 1) rotate(0) translate(4 256)">
<title>ergw_aaa_flow_syntax</title>
<polygon fill="#ffffff" stroke="transparent" points="-4,4 -4,-256 789.5836,-256 789.5836,4 -4,4"/>
<!-- ergw_aaa_app -->
<g id="node1" class="node">
<title>ergw_aaa_app</title>
<ellipse fill="#f5f5dc" stroke="#000000" cx="386.692" cy="-234" rx="61.99" ry="18"/>
<text text-anchor="middle" x="386.692" y="-230.3" font-family="Times,serif" font-size="14.00" fill="#000000">ergw_aaa_app</text>
</g>
<!-- ergw_aaa_sup -->
<g id="node6" class="node">
<title>ergw_aaa_sup</title>
<ellipse fill="#f0ffff" stroke="#000000" cx="386.692" cy="-162" rx="61.1893" ry="18"/>
<text text-anchor="middle" x="386.692" y="-158.3" font-family="Times,serif" font-size="14.00" fill="#000000">ergw_aaa_sup</text>
</g>
<!-- ergw_aaa_app&#45;&gt;ergw_aaa_sup -->
<g id="edge1" class="edge">
<title>ergw_aaa_app&#45;&gt;ergw_aaa_sup</title>
<path fill="none" stroke="#000000" d="M386.692,-215.8314C386.692,-208.131 386.692,-198.9743 386.692,-190.4166"/>
<polygon fill="#000000" stroke="#000000" points="390.1921,-190.4132 386.692,-180.4133 383.1921,-190.4133 390.1921,-190.4132"/>
</g>
<!-- ergw_aaa_session -->
<g id="node2" class="node">
<title>ergw_aaa_session</title>
<ellipse fill="#9acd32" stroke="#000000" cx="486.692" cy="-18" rx="74.187" ry="18"/>
<text text-anchor="middle" x="486.692" y="-14.3" font-family="Times,serif" font-size="14.00" fill="#000000">ergw_aaa_session</text>
</g>
<!-- ergw_aaa_session_reg -->
<g id="node3" class="node">
<title>ergw_aaa_session_reg</title>
<ellipse fill="#9acd32" stroke="#000000" cx="89.692" cy="-90" rx="89.8845" ry="18"/>
<text text-anchor="middle" x="89.692" y="-86.3" font-family="Times,serif" font-size="14.00" fill="#000000">ergw_aaa_session_reg</text>
</g>
<!-- ergw_aaa_session_seq -->
<g id="node4" class="node">
<title>ergw_aaa_session_seq</title>
<ellipse fill="#9acd32" stroke="#000000" cx="287.692" cy="-90" rx="90.1842" ry="18"/>
<text text-anchor="middle" x="287.692" y="-86.3" font-family="Times,serif" font-size="14.00" fill="#000000">ergw_aaa_session_seq</text>
</g>
<!-- ergw_aaa_session_sup -->
<g id="node5" class="node">
<title>ergw_aaa_session_sup</title>
<ellipse fill="#f0ffff" stroke="#000000" cx="486.692" cy="-90" rx="90.9839" ry="18"/>
<text text-anchor="middle" x="486.692" y="-86.3" font-family="Times,serif" font-size="14.00" fill="#000000">ergw_aaa_session_sup</text>
</g>
<!-- ergw_aaa_session_sup&#45;&gt;ergw_aaa_session -->
<g id="edge2" class="edge">
<title>ergw_aaa_session_sup&#45;&gt;ergw_aaa_session</title>
<path fill="none" stroke="#000000" d="M486.692,-71.8314C486.692,-64.131 486.692,-54.9743 486.692,-46.4166"/>
<polygon fill="#000000" stroke="#000000" points="490.1921,-46.4132 486.692,-36.4133 483.1921,-46.4133 490.1921,-46.4132"/>
</g>
<!-- ergw_aaa_sup&#45;&gt;ergw_aaa_session_reg -->
<g id="edge3" class="edge">
<title>ergw_aaa_sup&#45;&gt;ergw_aaa_session_reg</title>
<path fill="none" stroke="#000000" d="M339.3031,-150.5118C290.019,-138.5641 212.4388,-119.7568 156.8506,-106.2809"/>
<polygon fill="#000000" stroke="#000000" points="157.6297,-102.8684 147.0865,-103.9138 155.9804,-109.6714 157.6297,-102.8684"/>
</g>
<!-- ergw_aaa_sup&#45;&gt;ergw_aaa_session_seq -->
<g id="edge4" class="edge">
<title>ergw_aaa_sup&#45;&gt;ergw_aaa_session_seq</title>
<path fill="none" stroke="#000000" d="M363.7306,-145.3008C350.6474,-135.7857 334.0524,-123.7166 319.7061,-113.2829"/>
<polygon fill="#000000" stroke="#000000" points="321.7085,-110.4115 311.5625,-107.3603 317.5913,-116.0727 321.7085,-110.4115"/>
</g>
<!-- ergw_aaa_sup&#45;&gt;ergw_aaa_session_sup -->
<g id="edge5" class="edge">
<title>ergw_aaa_sup&#45;&gt;ergw_aaa_session_sup</title>
<path fill="none" stroke="#000000" d="M409.8854,-145.3008C423.1008,-135.7857 439.8634,-123.7166 454.3546,-113.2829"/>
<polygon fill="#000000" stroke="#000000" points="456.5102,-116.0438 462.5804,-107.3603 452.42,-110.3631 456.5102,-116.0438"/>
</g>
<!-- ergw_aaa_diameter_srv -->
<g id="node7" class="node">
<title>ergw_aaa_diameter_srv</title>
<ellipse fill="#9acd32" stroke="#000000" cx="690.692" cy="-90" rx="94.7833" ry="18"/>
<text text-anchor="middle" x="690.692" y="-86.3" font-family="Times,serif" font-size="14.00" fill="#000000">ergw_aaa_diameter_srv</text>
</g>
<!-- ergw_aaa_sup&#45;&gt;ergw_aaa_diameter_srv -->
<g id="edge6" class="edge">
<title>ergw_aaa_sup&#45;&gt;ergw_aaa_diameter_srv</title>
<path fill="none" stroke="#000000" d="M434.5265,-150.6708C484.687,-138.7907 564.0085,-120.004 621.0995,-106.4825"/>
<polygon fill="#000000" stroke="#000000" points="622.2072,-109.817 631.1314,-104.1065 620.5939,-103.0054 622.2072,-109.817"/>
</g>
</g>
</svg>
